<mxfile host="app.diagrams.net" modified="2024-04-10T13:04:41.928Z" agent="Mozilla/5.0 (X11; Linux x86_64; rv:124.0) Gecko/20100101 Firefox/124.0" version="24.2.3" etag="eFxh6AACbCP9z55W52HH" type="github">
  <diagram name="Page-1" id="MHP3qSNjHFWiwye-wpiP">
    <mxGraphModel>
      <root>
        <mxCell id="0" />
        <mxCell id="1" parent="0" />
      </root>
    </mxGraphModel>
  </diagram>
</mxfile>
